<svg width="523" height="489" viewBox="0 0 523 489" fill="none" xmlns="http://www.w3.org/2000/svg">
<rect x="100" y="402" width="160" height="85" fill="#F6F1F1"/>
<rect y="137" width="113" height="350" fill="#F6F1F1"/>
<path d="M510 240.5C506.667 248.5 502 255.5 496 261.5C490.333 267.5 483.5 272.333 475.5 276C467.5 279.333 458.833 281 449.5 281H260V375H142V24.5H449.5C458.833 24.5 467.5 26.3333 475.5 30C483.5 33.3333 490.333 38 496 44C502 50 506.667 56.8333 510 64.5C513.333 72.1666 515 80.1666 515 88.5V216.5C515 224.833 513.333 232.833 510 240.5ZM260 195H397.5C401.167 195 404.167 193.833 406.5 191.5C408.833 189.167 410 186.167 410 182.5V123C410 119.333 408.833 116.333 406.5 114C404.167 111.667 401.167 110.5 397.5 110.5H260V195Z" fill="#F6F1F1"/>
<path d="M0 24L451 24.5V109L0 109L0 24Z" fill="#F6F1F1"/>
<path fill-rule="evenodd" clip-rule="evenodd" d="M430.707 373.706L517 366.033L333.875 488.897L408.293 399.191L322 406.864L505.125 284L430.707 373.706Z" fill="#19A7CE"/>
</svg>
