<svg width="544" height="510" viewBox="0 0 544 510" fill="none" xmlns="http://www.w3.org/2000/svg">
<rect x="100" y="425" width="181" height="85" fill="#AFD3E2"/>
<rect y="160" width="113" height="350" fill="#AFD3E2"/>
<path d="M531 240.5C527.667 248.5 523 255.5 517 261.5C511.333 267.5 504.5 272.333 496.5 276C488.5 279.333 479.833 281 470.5 281H281V375H163V24.5H470.5C479.833 24.5 488.5 26.3333 496.5 30C504.5 33.3333 511.333 38 517 44C523 50 527.667 56.8333 531 64.5C534.333 72.1666 536 80.1666 536 88.5V216.5C536 224.833 534.333 232.833 531 240.5ZM281 195H418.5C422.167 195 425.167 193.833 427.5 191.5C429.833 189.167 431 186.167 431 182.5V123C431 119.333 429.833 116.333 427.5 114C425.167 111.667 422.167 110.5 418.5 110.5H281V195Z" fill="#F6F1F1"/>
<rect y="24.5" width="166.5" height="85" fill="#F6F1F1"/>
<path fill-rule="evenodd" clip-rule="evenodd" d="M451.707 394.706L538 387.033L354.875 509.897L429.293 420.191L343 427.864L526.125 305L451.707 394.706Z" fill="#19A7CE"/>
</svg>
